<?xml version="1.0" standalone="no"?>
<!DOCTYPE svg PUBLIC "-//W3C//DTD SVG 20010904//EN"
 "http://www.w3.org/TR/2001/REC-SVG-20010904/DTD/svg10.dtd">
<svg version="1.0" xmlns="http://www.w3.org/2000/svg"
 width="736.000000pt" height="738.000000pt" viewBox="0 0 736.000000 738.000000"
 preserveAspectRatio="xMidYMid meet">
<metadata>
Created by potrace 1.16, written by Peter Selinger 2001-2019
</metadata>
<g transform="translate(0.000000,738.000000) scale(0.100000,-0.100000)"
fill="#000000" stroke="none">
<path d="M3426 7373 c-4 -4 -49 -11 -99 -15 -116 -9 -235 -24 -312 -38 -33 -6
-80 -13 -105 -16 -25 -3 -49 -10 -54 -15 -6 -5 -25 -9 -42 -9 -18 0 -36 -4
-39 -10 -3 -5 -21 -10 -40 -10 -19 0 -37 -4 -40 -10 -3 -5 -19 -10 -35 -10
-16 0 -32 -4 -35 -10 -3 -5 -16 -10 -28 -10 -24 0 -93 -22 -103 -33 -4 -4 -18
-7 -30 -7 -13 0 -26 -4 -29 -10 -3 -5 -17 -10 -31 -10 -13 0 -24 -4 -24 -10 0
-5 -9 -10 -20 -10 -11 0 -28 -4 -38 -9 -9 -5 -30 -14 -47 -21 -16 -7 -38 -16
-47 -21 -10 -5 -25 -9 -33 -9 -8 0 -15 -4 -15 -10 0 -5 -7 -10 -15 -10 -8 0
-23 -4 -33 -9 -9 -5 -82 -41 -162 -81 -80 -40 -157 -81 -172 -91 -14 -11 -29
-19 -33 -19 -3 0 -33 -18 -65 -40 -32 -22 -63 -40 -69 -40 -5 0 -11 -4 -13 -8
-2 -5 -32 -28 -68 -52 -36 -24 -67 -46 -70 -50 -3 -3 -21 -17 -40 -30 -19 -13
-41 -30 -48 -37 -7 -7 -17 -13 -20 -13 -4 0 -19 -10 -32 -22 -14 -13 -50 -43
-80 -68 -72 -59 -181 -162 -244 -229 -28 -30 -69 -73 -91 -95 -22 -23 -56 -61
-75 -86 -19 -25 -42 -52 -50 -60 -9 -8 -27 -31 -40 -50 -13 -19 -27 -37 -30
-40 -3 -3 -17 -21 -30 -40 -14 -19 -32 -44 -42 -54 -10 -11 -18 -25 -18 -32 0
-7 -4 -14 -8 -16 -10 -4 -102 -141 -122 -183 -8 -16 -18 -32 -21 -35 -3 -3
-21 -34 -40 -70 -19 -36 -37 -66 -41 -68 -5 -2 -8 -12 -8 -22 0 -10 -3 -20 -7
-22 -11 -4 -53 -87 -53 -104 0 -8 -4 -14 -10 -14 -5 0 -10 -6 -10 -14 0 -12
-14 -44 -51 -118 -5 -10 -9 -25 -9 -33 0 -8 -4 -15 -10 -15 -5 0 -10 -7 -10
-15 0 -8 -5 -24 -10 -35 -6 -11 -14 -29 -20 -40 -5 -11 -10 -29 -10 -39 0 -11
-4 -23 -10 -26 -5 -3 -10 -16 -10 -29 0 -12 -3 -26 -7 -29 -11 -11 -52 -140
-53 -164 0 -12 -4 -25 -10 -28 -5 -3 -10 -19 -10 -35 0 -16 -4 -32 -10 -35 -5
-3 -10 -23 -10 -44 0 -20 -4 -41 -9 -47 -5 -5 -11 -27 -15 -49 -3 -22 -10 -67
-16 -100 -29 -163 -33 -239 -33 -655 0 -416 4 -508 33 -650 6 -30 13 -73 16
-95 3 -22 9 -49 14 -60 5 -11 11 -37 14 -57 13 -84 19 -108 27 -114 5 -3 9
-18 9 -34 0 -16 5 -32 10 -35 6 -3 10 -19 10 -35 0 -16 5 -32 10 -35 6 -3 10
-17 10 -30 0 -13 4 -27 10 -30 5 -3 10 -17 10 -30 0 -13 5 -27 10 -30 6 -3 10
-15 10 -26 0 -10 4 -27 9 -37 9 -18 19 -42 60 -144 13 -34 58 -132 99 -218 32
-66 63 -123 125 -225 9 -16 20 -38 23 -47 4 -10 10 -18 15 -18 5 0 9 -6 9 -13
0 -7 9 -23 20 -35 11 -12 20 -24 20 -27 0 -6 93 -147 116 -174 16 -19 97 -123
139 -177 28 -36 53 -65 175 -198 85 -92 301 -282 442 -388 387 -291 853 -510
1338 -628 266 -65 457 -89 760 -97 638 -16 1179 97 1720 358 397 192 699 407
1010 718 543 543 874 1178 1015 1945 43 238 58 438 52 726 -5 268 -21 420 -63
630 -155 776 -558 1494 -1129 2010 -156 141 -412 332 -549 410 -20 11 -53 30
-73 42 -126 72 -223 122 -315 162 -94 40 -110 47 -140 60 -18 7 -49 19 -68 26
-19 7 -53 20 -75 29 -22 10 -60 23 -85 30 -25 7 -53 17 -62 22 -10 5 -29 9
-42 9 -14 0 -27 4 -30 9 -3 5 -18 11 -33 14 -16 3 -48 11 -73 17 -203 50 -392
82 -600 101 -151 13 -573 22 -584 12z m619 -378 c512 -58 976 -219 1403 -486
397 -248 746 -587 994 -969 331 -508 516 -1074 545 -1667 l6 -133 -2184 -1
c-1201 -1 -2699 -2 -3328 -3 l-1144 -1 2 100 c10 591 213 1219 560 1734 560
828 1476 1354 2512 1441 139 12 473 4 634 -15z m-525 -3950 l0 -155 -247 0
-246 0 7 -505 6 -505 -168 0 -169 0 -6 368 c-4 202 -7 429 -7 505 l0 137 -239
0 -240 0 -3 151 c-2 83 -1 153 1 155 2 2 298 4 658 4 l653 0 0 -155z m762 -2
c63 -87 128 -177 143 -200 15 -24 31 -41 35 -38 4 3 70 92 146 200 l139 195
202 0 202 0 -245 -331 c-135 -182 -243 -336 -241 -343 3 -6 118 -152 256 -325
138 -173 251 -316 251 -318 0 -1 -96 -3 -213 -3 l-213 0 -149 205 c-135 186
-151 204 -163 188 -7 -10 -74 -102 -149 -205 l-136 -188 -199 0 c-166 0 -198
2 -191 14 4 7 116 152 248 320 132 169 241 311 243 316 2 5 -107 155 -242 334
-135 180 -246 328 -246 331 0 3 92 5 204 5 l203 0 115 -157z"/>
<path d="M1988 5122 l-238 -2 0 -378 0 -377 320 3 320 3 0 90 0 91 -207 -7
c-115 -4 -216 -9 -225 -11 -16 -5 -18 3 -18 60 l0 66 124 0 c68 0 138 3 155 6
l31 7 0 79 0 79 -155 -3 -154 -3 -7 53 c-4 30 -3 57 2 61 5 4 106 5 224 2 118
-3 216 -6 217 -6 1 0 3 43 5 94 l3 95 -80 0 c-44 1 -187 0 -317 -2z"/>
<path d="M2839 5122 l-337 -2 -6 -33 c-4 -17 -3 -58 0 -90 l7 -58 118 3 119 3
0 -292 0 -293 89 0 c50 0 92 3 94 8 3 4 6 134 8 289 l4 283 128 0 127 0 0 89
c0 50 -3 91 -7 93 -5 2 -159 2 -344 0z"/>
<path d="M3477 5123 c-3 -4 -21 -48 -40 -98 -38 -99 -149 -354 -233 -537 -30
-64 -54 -118 -54 -120 0 -2 43 -2 95 0 l96 3 32 65 31 64 162 0 161 0 31 -71
32 -71 92 7 c51 4 94 8 95 9 5 4 -187 420 -270 586 l-82 165 -72 3 c-39 2 -73
-1 -76 -5z m103 -264 c0 -4 20 -50 45 -101 25 -51 45 -94 45 -95 0 -2 -45 -3
-100 -3 -55 0 -100 2 -100 4 0 2 16 48 35 102 20 55 38 105 40 113 4 11 8 11
20 1 8 -7 15 -16 15 -21z"/>
<path d="M4738 5122 l-78 -3 -2 -236 -3 -235 -94 113 c-51 63 -147 169 -212
237 l-119 122 -65 0 -65 0 2 -377 3 -378 90 0 90 0 3 213 c1 116 6 212 10 211
4 0 30 -29 58 -64 28 -35 114 -129 191 -209 l141 -146 75 0 c42 0 79 4 82 10
11 18 -7 739 -19 742 -6 2 -46 2 -88 0z"/>
<path d="M6050 5122 l-65 -3 -79 -187 c-44 -103 -119 -274 -167 -380 l-87
-192 92 3 91 2 35 68 35 67 165 0 166 0 33 -65 34 -65 89 0 c49 0 88 4 86 9
-3 8 -51 113 -253 550 -49 107 -94 195 -100 196 -5 0 -39 -1 -75 -3z m60 -343
c27 -56 50 -104 50 -105 0 -2 -42 -4 -94 -4 l-94 0 18 38 c9 20 28 67 41 105
13 37 25 67 26 67 1 0 25 -46 53 -101z"/>
<path d="M1043 5104 c-102 -51 -161 -207 -118 -312 20 -48 50 -79 100 -105 33
-17 70 -22 205 -29 146 -8 167 -11 182 -29 12 -14 15 -27 9 -42 -8 -21 -16
-22 -157 -28 -82 -4 -191 -7 -241 -8 l-93 -1 0 -42 c0 -24 3 -65 6 -93 l6 -50
272 5 c251 5 273 6 298 25 77 57 113 218 69 309 -27 55 -78 101 -128 116 -21
6 -107 13 -190 17 -142 6 -153 8 -159 26 -5 15 1 27 20 44 26 22 34 23 194 23
92 0 184 3 205 6 l37 7 0 88 0 89 -242 0 c-202 0 -248 -3 -275 -16z"/>
<path d="M4990 5024 l0 -96 53 6 c28 3 86 6 127 7 l75 2 0 -259 c0 -142 1
-272 2 -289 l3 -30 95 3 95 3 0 285 0 284 129 0 130 0 -2 90 -2 90 -352 0
-353 0 0 -96z"/>
</g>
</svg>
